<svg xmlns="http://www.w3.org/2000/svg" xml:space="preserve" width="16" height="16" viewBox="0 0 512 512"><path d="M269.8 0a31 31 0 0 0-21.3 9.4c-5.2 5.1-9 11.2-12.6 18.4A234.2 234.2 0 0 0 219.4 80H128c-26.3 0-48 21.7-48 48v84.8a234.2 234.2 0 0 0-52.3 16.4 65.3 65.3 0 0 0-18.3 12.6A31.1 31.1 0 0 0 0 263.1c0 8.7 4.3 16.1 9.4 21.3 5.1 5.3 11.2 9.1 18.4 12.7 9.3 4.6 23 7.7 36.2 11.3v-33.1c-10-3-17.3-4.6-22-6.9-4-2-6.7-3.9-8.4-5.3 1.7-1.4 4.3-3.3 8.4-5.3 8-4 22.8-8 38-11.7V384c0 26.3 21.7 48 48 48h91.4c4.6 20.9 9.8 38.8 16.5 52.3a65.3 65.3 0 0 0 12.6 18.3 31 31 0 0 0 21.3 9.4c8.6 0 16-4.3 21.3-9.4 5.3-5.1 9.1-11.2 12.6-18.4 4.7-9.3 7.8-23 11.4-36.2H282c-3 10-4.5 17.3-6.8 22-2 4-4 6.7-5.4 8.4a41.9 41.9 0 0 1-5.2-8.4c-4-8-8-22.7-11.8-38H384c26.3 0 48-21.7 48-48V246.1a221 221 0 0 1 38 11.7c4 2 6.7 4 8.4 5.3a41.5 41.5 0 0 1-8.4 5.3c-4.7 2.3-12 4-22 6.9v33.1c13.3-3.6 27-6.7 36.3-11.3a65.3 65.3 0 0 0 18.3-12.7 31.1 31.1 0 0 0 9.4-21.3c0-8.6-4.3-16-9.4-21.3-5.1-5.2-11.2-9-18.4-12.6a234.2 234.2 0 0 0-52.2-16.4V128c0-26.3-21.7-48-48-48H252.7c3.8-15.2 7.8-30 11.8-38 2-4 3.9-6.7 5.3-8.4A41 41 0 0 1 275 42c2.3 4.6 3.9 12 6.8 22H315c-3.6-13.3-6.7-27-11.4-36.3a65.3 65.3 0 0 0-12.6-18.3A31.3 31.3 0 0 0 269.7 0zm-186 27.4a111.6 111.6 0 0 0-60.6 60.7c-2 5-3.4 10.1-4.7 15.3l29.4 12.3C53 90.3 70 67.7 96 57L83.7 27.4zm344.4 0L416 57a79.6 79.6 0 0 1 48 58.7l29.5-12.3c-1.3-5.2-2.6-10.4-4.7-15.3-11-26.5-32-48.8-60.6-60.7zM128 112h87c-3.3 22.1-6.7 44-8.5 70.2h32c1.9-26.6 5.1-48.7 8.5-70.2h137c9.1 0 16 6.9 16 16v80.3c-22.3-3.3-44.2-6.8-70.7-8.6v-30.6l-70 46.7 70 46.7v-30.7c26.8 1.9 49 5.2 70.7 8.6V384c0 9.1-6.9 16-16 16H247a790 790 0 0 1-8.5-70.7h30.6l-46.7-70-46.7 70h30.7c1.8 26.5 5.3 48.4 8.6 70.7h-87c-9.1 0-16-6.9-16-16V239.8a840 840 0 0 1 70.2-8v-32a900.3 900.3 0 0 0-70.2 7.7V128c0-9.1 6.9-16 16-16zM48 396.3l-29.5 12.3c1.3 5.2 2.6 10.4 4.7 15.3 11 26.5 32 48.8 60.5 60.7L96 455a79.6 79.6 0 0 1-48-58.7zm416 0c-4.8 25.4-22 48-48 58.7l12.3 29.6a111.6 111.6 0 0 0 60.5-60.7c2-5 3.4-10.1 4.7-15.3l-29.4-12.3z" style="color:#000;fill:#000;stroke-linejoin:round;-inkscape-stroke:none;paint-order:stroke fill markers"/></svg>
