<svg xmlns="http://www.w3.org/2000/svg" xml:space="preserve" width="16" height="16" viewBox="0 0 512 512"><rect width="480" height="480" x="16" y="16" rx="32" ry="32" style="fill:none;fill-opacity:1;stroke:#000;stroke-width:32;stroke-linejoin:round;stroke-opacity:1;paint-order:stroke fill markers;stop-color:#000"/><path d="M65 257c0 7.5 3.5 14.1 7.7 18.8 4.1 4.6 9 8 14.5 10.9 11.1 6 25 10.4 41.8 14.2 12.9 2.9 43.9 6.9 43.9 6.9l-1.6-32.2s-24.6-3.5-35.2-6c-15-3.3-27-7.5-33.7-11.1-1-.5-1.6-1-2.3-1.5.7-.5 1.3-1 2.3-1.5 6.7-3.6 18.7-7.8 33.7-11.2 18-4 41.4-6.9 66.8-8.8-.2 7-.9 13.2-.9 20.5 0 49.6 4.5 94.4 12.1 128a168 168 0 0 0 14.2 41.8c3 5.5 6.3 10.4 11 14.5A28.6 28.6 0 0 0 258 448c7.5 0 14.1-3.5 18.8-7.7 4.6-4.1 7.9-9 10.8-14.6 5.8-10.7 10.1-24.3 13.8-40.4h21.7l-36.9-70-36.7 70h18.4c-2.3 8-5.7 20.2-8.4 25.3-.5 1-1 1.6-1.5 2.3-.5-.7-1-1.3-1.5-2.3-3.6-6.7-7.8-18.7-11.3-33.7A577.4 577.4 0 0 1 234 256c0-7.8.8-14.5 1-22 7.5-.2 14.2-1 22-1a577 577 0 0 1 120.9 11.3c15 3.4 27 7.6 33.7 11.2 1 .5 1.6 1 2.3 1.5-.7.5-1.3 1-2.3 1.5-5 2.7-16.7 5.9-24.8 8.3V249l-70 36.8 70 36.8v-22.4c15.8-3.7 29.4-7.8 40-13.5 5.5-3 10.4-6.3 14.5-11A28.6 28.6 0 0 0 449 257c0-7.5-3.5-14.1-7.7-18.8-4.1-4.6-9-8-14.6-10.9-11-6-25-10.4-41.7-14.2A602.2 602.2 0 0 0 257 201c-7.3 0-13.5.7-20.5 1 2-25.5 4.7-49 8.8-66.9 3.4-15 7.6-27 11.2-33.7.5-1 1-1.6 1.5-2.3.5.7 1 1.3 1.5 2.3 3.6 6.7 7.7 18.7 11.1 33.7 2.3 9.9 5.6 34 5.6 34l32-2.4s-3.7-27.2-6.3-38.7a167.7 167.7 0 0 0-14.3-41.8c-3-5.5-6.2-10.3-10.9-14.5A28.6 28.6 0 0 0 258 64c-7.5 0-14.1 3.5-18.8 7.7-4.6 4.1-8 9-11 14.5-5.9 11.1-10.3 25-14 41.8-4.8 21-7.8 47.2-9.8 75.4-28.2 2-54.5 5-75.4 9.7a167.8 167.8 0 0 0-41.8 14.2c-5.5 3-10.4 6.3-14.5 11A28.6 28.6 0 0 0 65 257Z" style="color:#000;fill:#000;stroke-linejoin:round;-inkscape-stroke:none;paint-order:stroke fill markers"/></svg>