<svg xmlns="http://www.w3.org/2000/svg" xml:space="preserve" width="24" height="24"><path d="M.61 0v24h13c3.2 0 5.62-.58 7.27-1.75a5.6 5.6 0 0 0 2.5-4.87c0-1.4-.36-2.58-1.08-3.56-.7-1-1.72-1.77-3.04-2.3l-.18-.06a6.18 6.18 0 0 0 2.23-1.93c.66-.96.99-2.04.99-3.26 0-1.82-.76-3.32-2.28-4.49C18.5.6 16.15 0 12.96 0Z"/><path fill="#f8f801" d="M9.43.93c-.87-.02-1.37.1-1.7.37-.1.1-.43.65-.74 1.28-.63 1.25-.62 1.24-1.35 2.35-.65 1-.75 1.27-.71 1.96.05.89.48 1.57 1.26 2L6.4 9 6 8.98c0 .33.04.65.14.97.11.36.33.59.78.81.52.26 1 .36 1.65.36.95-.01 1.5-.26 1.8-.82.33-.58.21-1.14-.45-2.21-.29-.46-.3-.5-.26-.9.08-.8.1-.76-.1-.76-.13 0-.22.1-.44.5-.32.59-.52.81-1.02 1.2-.45.34-.58.37-.2.05.64-.56 1.13-1.51 1.57-3.05l.23-.81-.35-.36c-.3-.3-.33-.35-.18-.3.2.05.54.05.64-.02.11-.06.09-.44-.04-.68-.14-.25-.1-.26.2-.04.52.38 1.05.35 1.4-.1l.22-.26v.27c0 .58.36 1.04 1.4 1.8.55.4.69.47.92.46.59-.02.62-.37.14-1.38-.16-.33-.38-.88-.5-1.21-.28-.86-.52-1.26-.78-1.35a3.07 3.07 0 0 0-.72-.06c-.28 0-1.01-.05-1.62-.1-.38-.04-.7-.06-1-.06Zm4.96 1.11c-.38 0-.66.14-.66.31 0 .14.36 1.08.52 1.38.12.2.55.11.8-.17.45-.52.02-1.52-.66-1.52Zm.4 1.95c-.18 0-.33.02-.33.07s.04.22.08.38c.1.39 0 .65-.3.8-.33.18-.74.11-1.27-.2a1.7 1.7 0 0 0-.83-.3c-.62-.04-1.13.25-1.17.68 0 .1-.01.2 0 .28 0 .24.07.4.22.54.24.23.27.24.94.13.25-.04.93-.11 1.5-.15 1.14-.09 1.77-.27 1.96-.56.35-.55.2-1.32-.32-1.6-.1-.05-.3-.07-.48-.07Zm-.2 2.35c-.26 0-.61.05-1.08.12-.39.07-.91.12-1.17.12-.25 0-.54.05-.64.1-.26.14-.5.53-.5.85.01.34.2.54.57.6.15.02.3.05.34.07h1.18c1.02-.03 1.13-.05 1.46-.22.43-.21.53-.4.52-.95 0-.5-.12-.7-.69-.69Zm-.2 2.07-1.43.07c-1 .06-1.48.11-1.56.18-.07.06-.1.2-.1.37 0 .17.04.35.1.49.14.24.53.49.98.61.44.12 1.4.07 1.7-.1.57-.3.82-1.05.48-1.44Zm-.83 2.7c-.46 0-1.01.05-1.7.15-.65.09-1.5.19-1.9.21-1.26.1-1.4.22-1.77 1.67-.1.37-.31 1-.47 1.39-.34.82-.48 1.23-.43 1.47.03.14.12.22.28.29.32.13.65.05 1-.25 1.56-1.32 1.86-1.7 1.9-2.41l.01-.35.22.2c.59.56 1.2.52 1.92-.12l.19-.17-.17.34c-.2.4-.22.61-.07.76.12.12.6.14.83.02.24-.13.2-.05-.22.42l-.38.42.3.87c.52 1.56.96 2.38 1.68 3.12.35.36.62.66.6.66l-.33-.16c-.43-.23-.98-.8-1.4-1.47-.3-.45-.42-.57-.58-.58-.24 0-.26.1-.09.6.2.55.16.72-.35 1.7-.42.81-.47.96-.47 1.43 0 .84.44 1.44 1.24 1.66.46.14 1.6.12 2.12-.03 1.05-.3 1.65-.76 1.8-1.4.11-.43.02-.75-.06-1.15-.24 0-.24 0 .14-.24.45-.28.7-.6.98-1.25.23-.55.27-1.45.1-1.97-.07-.17-.47-.8-.9-1.4a31.66 31.66 0 0 1-2.17-3.44c-.37-.67-.86-.96-1.85-.98ZM7.2 12.76c-.5 0-1 .57-1.04 1.13 0 .08 0 .16.02.24.07.42.57.83.96.8.18-.02.24-.12.5-.82.15-.44.27-.88.28-.97 0-.22-.3-.38-.72-.38Zm-.48 2.35c-.38 0-.47.03-.68.26a1.36 1.36 0 0 0-.34 1.25c.1.4.26.57.75.8.32.14.62.18 1.85.23.81.04 1.76.07 2.1.07.58 0 .63-.02.8-.24.12-.16.18-.36.18-.63 0-.74-.46-1.08-1.39-1.02-.42.03-.58.09-1.02.4-.57.39-1.07.5-1.5.32-.32-.14-.45-.48-.37-1l.06-.43Zm.57 2.74c-.62 0-.82.13-.9.5l-.02.29c0 .3.08.63.2.83.13.2.38.34.87.46.45.1 2.42.03 3-.11.78-.2.97-.55.64-1.22-.26-.51-.44-.6-1.29-.6-.4 0-1.19-.05-1.74-.1a8.6 8.6 0 0 0-.76-.05Zm.31 2.4-.22.22c-.14.14-.19.22-.19.4l.01.2c.12 1.08 1.25 1.52 2.82 1.1.66-.19 1.12-.63 1.18-1.15.04-.31.02-.44-.1-.57-.14-.16-.26-.17-1.82-.18Z"/></svg>